#N canvas 1114 518 403 109 10;
#X obj 0 0 cnv 15 400 100 empty empty empty 20 12 0 14 -233017 -66577
0;
#X text 10 4 - In this example you can hear how the sheep and wolves
populations increase and decrease over time.;
#X text 8 34 - Sheep sound is a simple oscilator wich frequency change
with the sheep count.;
#X text 8 63 - The sound of wolves consists of two oscillators wich
frequencies changes depending on the amount of wolves.;
