#N canvas 1109 48 405 413 10;
#X obj -264 0 cnv 15 400 400 empty empty empty 20 12 0 14 -233017 -66577
0;
#X obj -247 139 osc/oscReceive 12345;
#X obj -60 185 master/stereoOut;
#X obj -244 254 osc/dataRouter;
#X msg -238 59 \; pd dsp \$1;
#X obj -238 35 tgl 15 0 empty empty empty 17 7 0 10 -191407 -1 -1 1
1;
#X text -244 371 OSC_NETLOGO- CITA 2011;
#X obj -247 292 osc/dataMapping;
#X text -220 35 1- Turn audio ON/OFF;
#N canvas 77 175 333 341 sheep 0;
#X obj 116 167 switch~ 0;
#X obj 116 120 tgl 30 0 empty empty empty 17 7 0 10 -191407 -1 -1 1
1;
#X obj -2 259 throw~ outL;
#X obj 21 293 throw~ outR;
#X obj 15 128 osc~;
#X obj 15 104 line~;
#X obj 16 50 r sheep2;
#X obj 15 152 *~ 0.4;
#X msg 16 83 \$1 200;
#X connect 1 0 0 0;
#X connect 4 0 7 0;
#X connect 5 0 4 0;
#X connect 6 0 8 0;
#X connect 7 0 2 0;
#X connect 7 0 3 0;
#X connect 8 0 5 0;
#X coords 0 -1 1 1 85 60 1 100 100;
#X restore 9 35 pd sheep;
#N canvas 0 22 361 378 wolves 0;
#X obj 116 167 switch~ 0;
#X obj 116 120 tgl 30 0 empty empty empty 17 7 0 10 -191407 -1 -1 1
1;
#X obj 4 264 throw~ outL;
#X obj 27 298 throw~ outR;
#X obj 22 78 line~;
#X obj 23 35 r wolves2;
#X msg 23 57 \$1 200;
#X obj 19 225 hip~ 100;
#X obj 21 200 *~ 0.2;
#X obj 22 131 osc~;
#X obj 57 130 osc~;
#X obj 22 160 +~;
#X obj 42 109 +~ 2;
#X obj 76 63 r wolves2;
#X obj 72 90 / 100;
#X connect 1 0 0 0;
#X connect 4 0 9 0;
#X connect 4 0 12 0;
#X connect 5 0 6 0;
#X connect 6 0 4 0;
#X connect 7 0 2 0;
#X connect 7 0 3 0;
#X connect 8 0 7 0;
#X connect 9 0 11 0;
#X connect 10 0 11 1;
#X connect 11 0 8 0;
#X connect 12 0 10 0;
#X connect 13 0 14 0;
#X connect 14 0 12 1;
#X coords 0 -1 1 1 85 60 1 100 100;
#X restore 8 107 pd wolves;
#X obj 54 7 _about;
#X text -82 69 Audio Synth;
#X text -25 51 -->;
#X text -94 52 2- Activate;
#X text -161 213 3- Adjust;
#X text -144 229 Audio Level;
#X text -99 215 -->;
#X connect 5 0 4 0;
