#N canvas 619 63 672 363 10;
#X obj -84 -53 r allReceivedData;
#X text 39 -52 Obtain X an Y values form Turtles;
#X obj -84 -22 route /followers/XCOR;
#X obj 39 9 route /followers/YCOR;
#X obj -83 43 s followersX;
#X obj 39 39 s followersY;
#X obj 271 120 route /leaders/YCOR;
#X obj 160 90 route /leaders/XCOR;
#X obj 271 150 s leadersY;
#X obj 161 155 s leadersX;
#X obj 382 155 route /variables/state;
#X obj 381 194 s state;
#X connect 0 0 2 0;
#X connect 2 0 4 0;
#X connect 2 1 3 0;
#X connect 3 0 5 0;
#X connect 3 1 7 0;
#X connect 6 0 8 0;
#X connect 6 1 10 0;
#X connect 7 0 9 0;
#X connect 7 1 6 0;
#X connect 10 0 11 0;
#X coords 0 0 1 1 160 100 0;
