#N canvas 32 481 866 482 10;
#X obj -42 279 mod 10;
#X obj 183 343 mod 10;
#X obj -42 177 unpack;
#X obj 184 174 unpack;
#X obj 183 381 pack;
#X obj 218 280 + 40;
#X obj -41 375 pack;
#X obj 218 260 * 100;
#X text 291 31 - map netlogo to musical values;
#X floatatom 67 51 5 0 0 0 - rcMax cMax;
#X floatatom 67 30 5 0 0 0 - rcMin cMin;
#X floatatom 116 31 5 0 0 0 - rmMin mMin;
#X floatatom 116 52 5 0 0 0 - rmMax mMax;
#X obj 305 192 t b f;
#X obj 264 211 -;
#X obj 264 171 r mMax;
#X obj 309 170 r mMin;
#X obj 266 254 r mMin;
#X obj 187 6 loadbang;
#X obj 183 125 r followersY;
#X obj -43 118 r followersX;
#X obj 119 374 + 1;
#X text 2 29 min-freq;
#X text 2 47 max-freq;
#X text 106 73 follower;
#X text 64 73 leader;
#X obj 16 213 + 40;
#X obj 16 240 / 80;
#X obj 218 210 + 40;
#X obj 218 237 / 80;
#X obj -41 410 s fPanner;
#X obj 183 408 s fFreq;
#X obj 109 406 s fModID;
#X obj 441 187 unpack;
#X obj 603 183 unpack;
#X obj 602 390 pack;
#X obj 637 289 + 40;
#X obj 442 385 pack;
#X obj 637 269 * 100;
#X obj 724 201 t b f;
#X obj 683 220 -;
#X obj 683 180 r mMax;
#X obj 728 179 r mMin;
#X obj 685 263 r mMin;
#X obj 499 223 + 40;
#X obj 499 250 / 80;
#X obj 637 219 + 40;
#X obj 637 246 / 80;
#X obj 440 128 r leadersX;
#X obj 602 134 r leadersY;
#X obj 602 417 s lFreq;
#X obj 442 420 s lPanner;
#X floatatom 509 306 5 0 0 0 - - -;
#X floatatom 677 354 5 0 0 0 - - -;
#X floatatom 233 312 5 0 0 0 - - -;
#X floatatom 36 307 5 0 0 0 - - -;
#X msg 187 29 \; rcMin 200 \; rcMax 800 \; rmMin 200 \; rmMax 800 \;
;
#X connect 0 0 6 0;
#X connect 1 0 4 0;
#X connect 2 0 0 0;
#X connect 2 1 26 0;
#X connect 3 0 1 0;
#X connect 3 1 28 0;
#X connect 4 0 31 0;
#X connect 5 0 4 1;
#X connect 5 0 54 0;
#X connect 6 0 30 0;
#X connect 7 0 5 0;
#X connect 13 0 14 0;
#X connect 13 1 14 1;
#X connect 14 0 7 1;
#X connect 15 0 14 0;
#X connect 16 0 13 0;
#X connect 17 0 5 1;
#X connect 18 0 56 0;
#X connect 19 0 3 0;
#X connect 20 0 2 0;
#X connect 21 0 32 0;
#X connect 26 0 27 0;
#X connect 27 0 6 1;
#X connect 27 0 55 0;
#X connect 28 0 29 0;
#X connect 29 0 7 0;
#X connect 33 0 37 0;
#X connect 33 1 44 0;
#X connect 34 0 35 0;
#X connect 34 1 46 0;
#X connect 35 0 50 0;
#X connect 36 0 35 1;
#X connect 36 0 53 0;
#X connect 37 0 51 0;
#X connect 38 0 36 0;
#X connect 39 0 40 0;
#X connect 39 1 40 1;
#X connect 40 0 38 1;
#X connect 41 0 40 0;
#X connect 42 0 39 0;
#X connect 43 0 36 1;
#X connect 44 0 45 0;
#X connect 45 0 37 1;
#X connect 45 0 52 0;
#X connect 46 0 47 0;
#X connect 47 0 38 0;
#X connect 48 0 33 0;
#X connect 49 0 34 0;
#X coords 0 -1 1 1 160 100 1 0 0;
