#N canvas 884 296 505 253 10;
#X obj 140 1 cnv 15 80 80 empty empty empty 20 12 0 14 -191407 -66577
0;
#X obj 22 -35 unpackOSC;
#X obj 45 48 spigot;
#X obj 78 20 r pS;
#X obj 145 6 cnv 15 70 70 empty empty empty 20 12 0 14 -245500 -66577
0;
#X obj 150 16 tgl 15 0 pS empty printIN 18 8 0 10 -261682 -1 -1 0 1
;
#X obj 152 -81 loadbang;
#X text 151 58 Port;
#X floatatom 150 40 5 0 0 0 - - -;
#X obj 72 79 print;
#X obj 20 -66 udpreceive \$1;
#X obj 152 -62 \$1;
#X obj 31 105 s allReceivedData;
#X connect 1 0 2 0;
#X connect 1 0 12 0;
#X connect 2 0 9 0;
#X connect 3 0 2 1;
#X connect 6 0 11 0;
#X connect 10 0 1 0;
#X connect 11 0 8 0;
#X coords -1 -1 1 1 80 80 2 140 0;
