#N canvas 412 46 353 441 10;
#X obj 116 62 t b f;
#X obj 116 37 route \$1;
#X obj 117 309 *~;
#X obj 204 306 *~;
#X obj 98 405 throw~ outL;
#X obj 173 405 throw~ outR;
#X obj 137 188 + 500;
#X obj 136 155 * 3;
#X obj 138 220 sig~;
#X obj 215 250 *~ 2;
#X obj 133 245 osc~;
#X obj 215 271 osc~;
#X obj 116 102 ead~ 130 400;
#X obj 204 99 ead~ 130 800;
#X obj 115 8 r wall2;
#X obj 118 374 *~ 0.01;
#X connect 0 0 12 0;
#X connect 0 0 13 0;
#X connect 0 1 7 0;
#X connect 1 0 0 0;
#X connect 2 0 15 0;
#X connect 3 0 15 0;
#X connect 6 0 8 0;
#X connect 7 0 6 0;
#X connect 8 0 10 0;
#X connect 8 0 9 0;
#X connect 9 0 11 0;
#X connect 10 0 2 1;
#X connect 11 0 3 1;
#X connect 12 0 2 0;
#X connect 13 0 3 0;
#X connect 14 0 1 0;
#X connect 15 0 4 0;
#X connect 15 0 5 0;
