#N canvas 140 307 214 311 10;
#X obj -64 231 throw~ outL;
#X obj -7 259 throw~ outR;
#X obj -64 134 osc~;
#N canvas 0 22 450 300 sqrtPan 0;
#X obj 57 51 inlet~;
#X obj 126 192 outlet~;
#X obj 57 192 outlet~;
#X obj 126 51 inlet~;
#X obj 126 92 expr~ sqrt(1-$v1) \; sqrt($v1);
#X obj 125 163 *~;
#X obj 58 159 *~;
#X connect 0 0 5 0;
#X connect 0 0 6 0;
#X connect 3 0 4 0;
#X connect 4 0 6 1;
#X connect 4 1 5 1;
#X connect 5 0 1 0;
#X connect 6 0 2 0;
#X restore -64 209 pd sqrtPan;
#X obj -63 44 route \$1;
#X msg -6 156 \$1 30;
#X msg -63 71 \$1 30;
#X obj -64 94 line~;
#X obj -7 179 line~;
#X obj -6 120 route \$1;
#X obj -63 17 r tRadio;
#X obj -6 84 r tPan;
#X obj -64 168 *~ 0.02;
#X connect 2 0 12 0;
#X connect 3 0 0 0;
#X connect 3 1 1 0;
#X connect 4 0 6 0;
#X connect 5 0 8 0;
#X connect 6 0 7 0;
#X connect 7 0 2 0;
#X connect 8 0 3 1;
#X connect 9 0 5 0;
#X connect 10 0 4 0;
#X connect 11 0 9 0;
#X connect 12 0 3 0;
