#N canvas 140 120 853 371 10;
#X obj 31 50 cnv 15 180 200 empty empty empty 20 12 0 14 -191407 -66577
0;
#X obj 35 56 cnv 15 170 190 empty empty empty 20 12 0 14 -228856 -66577
0;
#X obj 40 302 line~;
#X msg 40 279 \$1 50;
#X obj 40 63 vsl 30 170 0 100 0 0 empty empty empty 42 20 0 10 -262144
-1 -1 13520 1;
#X obj 37 4 loadbang;
#X obj 263 258 dac~;
#X obj 332 174 rev3~ 90 80;
#X obj 304 26 catch~ outR;
#X obj 229 26 catch~ outL;
#X obj 39 259 dbtorms;
#X obj 228 176 *~;
#X obj 301 176 *~;
#X obj 79 64 vsl 30 170 0 100 0 0 empty empty empty 42 20 0 10 -162280
-1 -1 0 1;
#X text 35 235 Volume;
#X msg 111 282 \$1 50;
#X text 114 58 Master Control;
#X obj 111 305 line;
#X text 79 235 Reverb;
#X obj 229 104 hip~ 30;
#X obj 303 99 hip~ 30;
#X obj 228 130 lop~ 18000;
#X obj 302 127 lop~ 18000;
#X obj 40 326 s~ mL;
#X obj 245 152 r~ mL;
#X obj 318 149 r~ mL;
#X obj 111 327 s~ rL;
#X obj 357 151 r rL;
#X obj 327 256 s~ meter;
#X msg 69 27 0;
#X obj 357 214 *~;
#X obj 332 213 *~;
#X obj 371 194 r~ rL;
#X obj 98 258 dbtorms;
#X msg 38 26 80;
#X obj 117 79 2chMeter;
#X obj 480 -5 r state;
#X obj 381 46 line~;
#X msg 381 25 \$1 100;
#X obj 305 70 *~;
#X obj 230 60 *~;
#X obj 480 41 select true false;
#X msg 477 62 1;
#X msg 527 62 0;
#X obj 480 21 prepend symbol;
#X connect 2 0 23 0;
#X connect 3 0 2 0;
#X connect 4 0 10 0;
#X connect 5 0 34 0;
#X connect 5 0 29 0;
#X connect 7 0 31 0;
#X connect 7 1 30 0;
#X connect 8 0 39 0;
#X connect 9 0 40 0;
#X connect 10 0 3 0;
#X connect 11 0 6 0;
#X connect 11 0 28 0;
#X connect 12 0 6 1;
#X connect 12 0 28 0;
#X connect 13 0 33 0;
#X connect 15 0 17 0;
#X connect 17 0 26 0;
#X connect 19 0 21 0;
#X connect 20 0 22 0;
#X connect 21 0 7 0;
#X connect 21 0 11 0;
#X connect 22 0 7 1;
#X connect 22 0 12 0;
#X connect 24 0 11 1;
#X connect 25 0 12 1;
#X connect 27 0 7 2;
#X connect 29 0 13 0;
#X connect 30 0 28 0;
#X connect 30 0 6 1;
#X connect 31 0 28 0;
#X connect 31 0 6 0;
#X connect 32 0 31 1;
#X connect 32 0 30 1;
#X connect 33 0 15 0;
#X connect 34 0 4 0;
#X connect 36 0 44 0;
#X connect 37 0 39 1;
#X connect 37 0 40 1;
#X connect 38 0 37 0;
#X connect 39 0 20 0;
#X connect 40 0 19 0;
#X connect 41 0 42 0;
#X connect 41 1 43 0;
#X connect 42 0 38 0;
#X connect 43 0 38 0;
#X connect 44 0 41 0;
#X coords 0 -1 1 1 180 200 2 30 50;
