#N canvas 1040 536 404 143 10;
#X obj 0 0 cnv 15 400 140 empty empty empty 20 12 0 14 -233017 -66577
0;
#X text 6 39 - turtles synth -> YCOR of each turtle control the frequency
of one sine wave oscilator \, XCOR is mapped to the stereo position.
;
#X text 7 85 - wall synth-> every time a turtle hits the wall triggers
a sound.;
#X text 9 6 - In this example you can listen many turtles moving circles.
Simple concept with interesting results.;
