#N canvas 774 78 404 419 10;
#X obj 1 4 cnv 15 400 400 empty empty empty 20 12 0 14 -233017 -66577
0;
#X obj 206 197 master/stereoOut;
#X obj 15 209 osc/dataRouter;
#X msg 15 46 \; pd dsp \$1;
#X obj 15 22 tgl 15 0 empty empty empty 17 7 0 10 -191407 -1 -1 1 1
;
#X text 16 380 OSC_NETLOGO- CITA 2011;
#X obj 13 245 osc/dataMapping;
#X text 195 64 Audio Synth;
#X text 258 46 -->;
#X text 33 22 1- Turn audio ON/OFF;
#X text 189 47 2- Activate;
#X text 204 160 3- Adjust;
#X text 210 177 Audio Level;
#X obj 328 13 _about;
#X obj 11 96 osc/oscreceive 57110;
#N canvas 74 352 294 278 turtles 0;
#X obj 116 167 switch~ 0;
#X obj 116 120 tgl 30 0 empty empty empty 17 7 0 10 -191407 -1 -1 1
1;
#X obj -35 -3 sAgent/tone2 1;
#X obj -32 174 sAgent/tone2 9;
#X obj -33 65 sAgent/tone2 4;
#X obj -35 20 sAgent/tone2 2;
#X obj -35 43 sAgent/tone2 3;
#X obj -33 87 sAgent/tone2 5;
#X obj -33 107 sAgent/tone2 6;
#X obj -32 129 sAgent/tone2 7;
#X obj -32 151 sAgent/tone2 8;
#X obj -30 197 sAgent/tone2 0;
#X connect 1 0 0 0;
#X coords 0 -1 1 1 85 60 1 100 100;
#X restore 285 46 pd turtles;
#N canvas 74 25 300 331 walls 0;
#X obj 116 167 switch~ 0;
#X obj 116 120 tgl 30 0 empty empty empty 17 7 0 10 -191407 -1 -1 1
1;
#X obj -29 37 sAgent/tone 0;
#X obj -28 61 sAgent/tone 1;
#X obj -28 87 sAgent/tone 2;
#X obj -26 111 sAgent/tone 3;
#X obj -26 135 sAgent/tone 4;
#X obj -26 158 sAgent/tone 5;
#X obj -25 184 sAgent/tone 6;
#X obj -25 208 sAgent/tone 7;
#X obj -25 232 sAgent/tone 8;
#X obj -24 252 sAgent/tone 9;
#X connect 1 0 0 0;
#X coords 0 -1 1 1 85 60 1 100 100;
#X restore 283 116 pd walls;
#X connect 4 0 3 0;
