#N canvas 149 413 329 421 10;
#X obj -103 -11 r freq;
#X obj -43 -11 r mod;
#X text -19 176 sidebands = fc + fm \, fc - fm;
#X text -19 161 fcarrier + fmodulator;
#X obj -82 276 throw~ outL;
#X obj -25 298 throw~ outR;
#X obj -27 212 vline~;
#X obj -82 226 *~;
#X obj -104 123 +~;
#X obj -103 143 osc~;
#X obj -43 42 osc~;
#X obj -43 98 *~ 5;
#X msg 20 100 0 \, \$1 10 0 \, 0 100 20;
#X obj 21 36 b;
#N canvas 0 22 450 300 sqrtPan 0;
#X obj 57 51 inlet~;
#X obj 126 96 expr sqrt(1-$f1) \; sqrt($f1);
#X obj 126 192 outlet~;
#X obj 57 192 outlet~;
#X obj 58 159 *~ 0.7;
#X obj 125 163 *~ 0.7;
#X obj 126 51 inlet;
#X connect 0 0 4 0;
#X connect 0 0 5 0;
#X connect 1 0 4 1;
#X connect 1 1 5 1;
#X connect 4 0 3 0;
#X connect 5 0 2 0;
#X connect 6 0 1 0;
#X restore -82 254 pd sqrtPan;
#X obj 23 221 r modID;
#X obj 78 220 r xN;
#X obj 21 262 f;
#X obj 22 241 select \$1;
#X obj -104 181 *~ 0.3;
#X obj 21 60 random 60;
#X obj 21 81 / 100;
#X obj -103 18 route \$1;
#X obj -43 18 route \$1;
#X connect 0 0 22 0;
#X connect 1 0 23 0;
#X connect 6 0 7 1;
#X connect 7 0 14 0;
#X connect 8 0 9 0;
#X connect 9 0 19 0;
#X connect 10 0 11 0;
#X connect 11 0 8 1;
#X connect 12 0 6 0;
#X connect 13 0 20 0;
#X connect 14 0 4 0;
#X connect 14 1 5 0;
#X connect 15 0 18 0;
#X connect 16 0 17 1;
#X connect 17 0 14 1;
#X connect 18 0 17 0;
#X connect 19 0 7 0;
#X connect 20 0 21 0;
#X connect 21 0 12 0;
#X connect 22 0 8 0;
#X connect 23 0 10 0;
#X connect 23 0 13 0;
