#N canvas 1114 518 403 109 10;
#X obj 0 0 cnv 15 400 100 empty empty empty 20 12 0 14 -233017 -66577
0;
#X text 7 34 - Noise bandwidth is in direct proportion with the percentage
of infected turtles in the network.;
#X text 6 66 - Central frequency of noise \, is in direct proportion
with the percentage of resistant turtles in the network.;
#X text 10 4 - In this example you can hear infected and resistant
turtles in the network.;
