#N canvas 855 97 422 440 10;
#X obj 3 6 cnv 15 400 400 empty empty empty 20 12 0 14 -233017 -66577
0;
#X obj 212 161 master/stereoOut;
#X obj 21 265 osc/dataRouter;
#X msg 33 74 \; pd dsp \$1;
#X obj 33 50 tgl 15 0 empty empty empty 17 7 0 10 -191407 -1 -1 0 1
;
#X text 245 378 OSC_NETLOGO- CITA 2011;
#X obj 18 303 osc/dataMapping;
#X text 66 175 -->;
#X text 14 332 2- Select;
#X text 51 50 1- Turn audio ON/OFF;
#N canvas 1050 501 203 347 infected 0;
#X obj 116 167 switch~ 0;
#X obj 116 120 tgl 30 0 empty empty empty 17 7 0 10 -191407 -1 -1 1
1;
#X obj 10 218 throw~ outL;
#X obj 33 252 throw~ outR;
#X obj 10 91 noise~;
#X obj 75 59 r infected2;
#X obj 37 -17 r resistant2;
#X obj 38 28 sig~;
#X obj 9 148 bp~ 800 10;
#X connect 1 0 0 0;
#X connect 4 0 8 0;
#X connect 5 0 8 2;
#X connect 6 0 7 0;
#X connect 6 0 8 1;
#X connect 8 0 2 0;
#X connect 8 0 3 0;
#X coords 0 -1 1 1 85 60 1 100 100;
#X restore 298 76 pd infected;
#X obj 23 176 osc/oscReceive 57110;
#X obj 341 16 _about;
#X text 212 103 Audio Synth;
#X text 200 86 2- Activate;
#X text 271 86 -->;
#X text 121 219 3- Adjust;
#X text 138 235 Audio Level;
#X text 178 220 -->;
#X connect 4 0 3 0;
