#N canvas 638 290 611 336 10;
#X obj -50 74 s \$1_x;
#X obj -18 104 s \$1_y;
#X obj -50 26 sroute \$1;
#X obj -49 -17 r agX;
#X obj -13 -10 r agY;
#X obj -15 51 sroute \$1;
#X connect 2 0 0 0;
#X connect 3 0 2 0;
#X connect 4 0 5 0;
#X connect 5 0 1 0;
#X coords 0 0 1 1 140 115 0;
