#N canvas 167 176 866 482 10;
#X text 291 31 - map netlogo to musical values;
#X floatatom 33 44 5 0 100 0 - rmMax mMax;
#X obj 187 6 loadbang;
#X obj 603 183 unpack;
#X obj 602 390 pack;
#X obj 637 289 + 40;
#X obj 442 385 pack;
#X obj 637 269 * 100;
#X obj 637 219 + 40;
#X obj 637 246 / 80;
#X obj 25 118 r turtlesY;
#X obj -35 359 s tRadio;
#X obj 129 124 r turtlesX;
#X obj 129 159 unpack;
#X obj 132 298 pack;
#X obj 132 371 s tPan;
#X obj 183 195 + 30;
#X obj 183 222 / 60;
#X text 148 249 Normalize Value - 0 - 1;
#X obj -43 118 r turtlesD;
#X obj -40 166 unpack;
#X obj -34 268 pack;
#X obj 36 178 r mMax;
#X obj 602 134 r wallY;
#X obj 440 137 r wallX;
#X obj 441 199 unpack;
#X obj 475 305 + 40;
#X obj 475 285 * 100;
#X obj 475 235 + 40;
#X obj 475 262 / 80;
#X obj 442 420 s wall2;
#X text 31 69 turtle / wall;
#X floatatom 82 44 5 0 100 0 - rwMax wMax;
#X obj 683 180 r wMax;
#X obj 521 196 r wMax;
#X text 31 19 Range;
#X msg 187 29 \; rmMax 20 \; rwMax 20 \;;
#X obj -11 193 * 2;
#X obj -16 219 + 0;
#X connect 2 0 36 0;
#X connect 3 0 4 0;
#X connect 3 1 8 0;
#X connect 4 0 30 0;
#X connect 5 0 4 1;
#X connect 6 0 30 0;
#X connect 7 0 5 0;
#X connect 8 0 9 0;
#X connect 9 0 7 0;
#X connect 12 0 13 0;
#X connect 13 0 14 0;
#X connect 13 1 16 0;
#X connect 14 0 15 0;
#X connect 16 0 17 0;
#X connect 17 0 14 1;
#X connect 19 0 20 0;
#X connect 20 0 21 0;
#X connect 20 1 37 0;
#X connect 21 0 11 0;
#X connect 22 0 37 1;
#X connect 23 0 3 0;
#X connect 24 0 25 0;
#X connect 25 0 6 0;
#X connect 25 1 28 0;
#X connect 26 0 6 1;
#X connect 27 0 26 0;
#X connect 28 0 29 0;
#X connect 29 0 27 0;
#X connect 33 0 7 1;
#X connect 34 0 27 1;
#X connect 37 0 38 0;
#X connect 38 0 21 1;
#X coords 0 -1 1 1 160 100 1 0 0;
