#N canvas 539 152 650 276 10;
#X obj -84 -53 r allReceivedData;
#X text 39 -52 Obtain X an Y values form Turtles;
#X obj -84 -22 route /turtles/TDISTANCE;
#X obj -83 43 s turtlesD;
#X obj 28 11 route /turtles/XCOR;
#X obj 28 41 s turtlesX;
#X obj 139 43 route /wall/XCOR;
#X obj 230 75 route /wall/YCOR;
#X obj 141 103 s wallX;
#X obj 229 108 s wallY;
#X connect 0 0 2 0;
#X connect 2 0 3 0;
#X connect 2 1 4 0;
#X connect 4 0 5 0;
#X connect 4 1 6 0;
#X connect 6 0 8 0;
#X connect 6 1 7 0;
#X connect 7 0 9 0;
#X coords 0 0 1 1 160 100 0;
