#N canvas 619 63 363 163 10;
#X obj -84 -53 r allReceivedData;
#X obj -84 -22 route /variables/infected;
#X obj -83 43 s infected;
#X obj 96 45 s resistant;
#X obj 96 -21 route /variables/resistant;
#X connect 0 0 1 0;
#X connect 0 0 4 0;
#X connect 1 0 2 0;
#X connect 4 0 3 0;
#X coords 0 0 1 1 160 100 0;
