#N canvas 619 63 363 163 10;
#X obj -84 -53 r allReceivedData;
#X text 63 -7 Obtain X an Y values form Turtles;
#X obj -84 -22 route /variables/sheep;
#X obj -6 12 route /variables/wolves;
#X obj -83 43 s sheep;
#X obj -6 44 s wolves;
#X connect 0 0 2 0;
#X connect 0 0 3 0;
#X connect 2 0 4 0;
#X connect 3 0 5 0;
#X coords 0 0 1 1 160 100 0;
