#N canvas 619 63 564 446 10;
#X obj -42 279 mod 10;
#X obj 183 343 mod 10;
#X obj -43 118 r turtleX;
#X obj 183 125 r turtleY;
#X obj -42 177 unpack;
#X obj 184 174 unpack;
#X obj 183 408 s freq;
#X obj 183 381 pack;
#X obj 218 210 + 45;
#X obj 218 237 / 90;
#X obj 217 314 mtof;
#X text 257 277 - Convert to midi notes range;
#X text 256 229 - Normalize value to 0-1 Range;
#X obj 218 280 + 40;
#X obj 127 407 s modID;
#X obj 16 213 + 45;
#X obj 16 240 / 90;
#X obj -41 375 pack;
#X obj -41 410 s mod;
#X obj 17 276 * 120;
#X text -53 229 - Normalize;
#X text -7 320 - Convert to mod freq range;
#X obj 218 260 * 100;
#X text 307 133 - map netlogo to musical values;
#X obj 16 303 + 20;
#X text 29 74 carrierRange;
#X text 108 74 modRange;
#X floatatom 59 51 5 0 0 0 - rcMax cMax;
#X floatatom 59 30 5 0 0 0 - rcMin cMin;
#X floatatom 111 32 5 0 0 0 - rmMin mMin;
#X floatatom 111 53 5 0 0 0 - rmMax mMax;
#X obj 53 275 r cMin;
#X obj 90 221 t b f;
#X obj 49 240 -;
#X obj 49 200 r cMax;
#X obj 94 199 r cMin;
#X obj 305 192 t b f;
#X obj 264 211 -;
#X obj 264 171 r mMax;
#X obj 309 170 r mMin;
#X obj 266 254 r mMin;
#X obj 187 6 loadbang;
#X text 2 29 min-freq;
#X text 3 48 max-freq;
#X msg 187 29 \; rcMin 40 \; rcMax 120 \; rmMin 20 \; rmMax 70 \;;
#X obj -22 254 s xN;
#X connect 0 0 17 0;
#X connect 1 0 7 0;
#X connect 1 0 14 0;
#X connect 2 0 4 0;
#X connect 3 0 5 0;
#X connect 4 0 0 0;
#X connect 4 1 15 0;
#X connect 5 0 1 0;
#X connect 5 1 8 0;
#X connect 7 0 6 0;
#X connect 8 0 9 0;
#X connect 9 0 22 0;
#X connect 10 0 7 1;
#X connect 13 0 10 0;
#X connect 15 0 16 0;
#X connect 16 0 19 0;
#X connect 16 0 45 0;
#X connect 17 0 18 0;
#X connect 19 0 24 0;
#X connect 22 0 13 0;
#X connect 24 0 17 1;
#X connect 31 0 24 1;
#X connect 32 0 33 0;
#X connect 32 1 33 1;
#X connect 33 0 19 1;
#X connect 34 0 33 0;
#X connect 35 0 32 0;
#X connect 36 0 37 0;
#X connect 36 1 37 1;
#X connect 37 0 22 1;
#X connect 38 0 37 0;
#X connect 39 0 36 0;
#X connect 40 0 13 1;
#X connect 41 0 44 0;
#X coords 0 -1 1 1 160 100 1 0 0;
